# xmcd
#
# Track frame offsets: 
#        150
#        13817
#        32321
#        44527
#        66743
#        81332
#        97839
#        118440
#        135622
#        151530
#        165542
#        186467
#        201319
#        221120
#
# Disc length: 3146 seconds
#
# Revision: 0
# Processed by: cddbd v1.5.2PL0 Copyright (c) Steve Scherf et al.
# Submitted via: ExactAudioCopyFreeDBPlugin 1.0
#
DISCID=ca0c480e
DTITLE=David Raitt And The Main Line - David Raitt And The Main Line
DYEAR=2014
DGENRE=Blues
TTITLE0=When I'm Around
TTITLE1=Fool For Your Love
TTITLE2=Hey Baby
TTITLE3=I Am That Someone
TTITLE4=That's Right
TTITLE5=Heatin' Up
TTITLE6=What's Going On
TTITLE7=Baby I'm Yours
TTITLE8=Tird Of This
TTITLE9=Automobile
TTITLE10=See See Rider
TTITLE11=You Caught Me
TTITLE12=People Been Talkin'
TTITLE13=Volcano
EXTD=
EXTT0=
EXTT1=
EXTT2=
EXTT3=
EXTT4=
EXTT5=
EXTT6=
EXTT7=
EXTT8=
EXTT9=
EXTT10=
EXTT11=
EXTT12=
EXTT13=
PLAYORDER=
